<svg width="434" height="421" viewBox="0 0 434 421" fill="none" xmlns="http://www.w3.org/2000/svg">
<path d="M59.61 335.934L49.366 420.857H46.007L56.25 335.934H59.61Z" fill="#D2DCFF"/>
<path d="M14.343 335.933L13.191 345.484L4.09998 420.856H0.73999L9.87598 345.11L10.983 335.933H14.343Z" fill="#D2DCFF"/>
<path d="M59.61 420.856H56.25L54.834 409.111L53.154 395.185L47.629 349.378L46.007 335.933H49.367L51.035 349.762L54.834 381.257L56.513 395.183L59.61 420.856Z" fill="#D2DCFF"/>
<path d="M104.877 420.856H101.517L93.567 354.941H93.566L91.274 335.933H94.634L96.971 355.308L104.877 420.856Z" fill="#D2DCFF"/>
<path d="M14.507 279.164H11.147V330.534H14.507V279.164Z" fill="#D2DCFF"/>
<path d="M60.158 279.164H56.799V330.534H60.158V279.164Z" fill="#D2DCFF"/>
<path d="M96.044 330.534H49.885C51.376 330.534 52.585 331.742 52.585 333.233C52.585 334.724 51.376 335.933 49.885 335.933H96.044C97.535 335.933 98.744 334.724 98.744 333.233C98.744 331.742 97.535 330.534 96.044 330.534Z" fill="#D2DCFF"/>
<path d="M52.585 333.233C52.585 331.742 51.376 330.534 49.885 330.534H14.578H10.03C8.53903 330.534 7.33002 331.742 7.33002 333.233C7.33002 334.724 8.53903 335.933 10.03 335.933H14.578H49.885C51.376 335.933 52.585 334.724 52.585 333.233Z" fill="#86A2E2"/>
<path d="M62.903 240.505H8.40198C6.32398 240.505 4.63898 242.19 4.63898 244.267V275.401C4.63898 277.479 6.32398 279.164 8.40198 279.164H62.903C64.981 279.164 66.666 277.479 66.666 275.401V244.267C66.666 242.189 64.981 240.505 62.903 240.505Z" fill="#D2DCFF"/>
<path d="M14.343 335.933L13.191 345.484C11.977 345.347 10.868 345.222 9.87701 345.111L10.984 335.933H14.343Z" fill="#AEC3FF"/>
<path d="M49.367 335.933L51.035 349.763C49.894 349.635 48.758 349.506 47.629 349.379L46.007 335.933H49.367Z" fill="#AEC3FF"/>
<path d="M96.971 355.308C95.887 355.192 94.75 355.07 93.567 354.941H93.566L91.274 335.933H94.634L96.971 355.308Z" fill="#AEC3FF"/>
<path d="M11.147 279.164H14.507V286.259L11.147 285.887V279.164Z" fill="#AEC3FF"/>
<path d="M60.158 279.164V291.312L56.799 290.94V279.164H60.158Z" fill="#AEC3FF"/>
<path d="M57.424 53.406H10.275V110.747H57.424V53.406Z" fill="#D2DCFF"/>
<path d="M55.263 55.218H12.435V108.935H55.263V55.218Z" fill="#D2DCFF"/>
<path d="M12.435 94.7L26.372 80.7629L33.328 87.72L46.414 74.634L55.264 83.4839V108.935H12.435V94.7Z" fill="#AEC3FF"/>
<path d="M25.252 72.95C27.3154 72.95 28.988 71.2774 28.988 69.2141C28.988 67.1508 27.3154 65.478 25.252 65.478C23.1887 65.478 21.516 67.1508 21.516 69.2141C21.516 71.2774 23.1887 72.95 25.252 72.95Z" fill="#AEC3FF"/>
<path d="M313.866 165.718H157.566C153.168 165.718 149.603 162.153 149.603 157.755V8.94409C149.603 4.54609 153.168 0.980957 157.566 0.980957H313.866C318.264 0.980957 321.829 4.54609 321.829 8.94409V157.755C321.829 162.153 318.264 165.718 313.866 165.718Z" fill="#89AEFF"/>
<path d="M247.116 24.8259H172.955C171.635 24.8259 170.565 23.756 170.565 22.436C170.565 21.116 171.635 20.0459 172.955 20.0459H247.116C248.436 20.0459 249.506 21.116 249.506 22.436C249.506 23.756 248.436 24.8259 247.116 24.8259Z" fill="#D2DCFF"/>
<path d="M223.275 36.75H172.955C171.635 36.75 170.565 35.6801 170.565 34.3601C170.565 33.0401 171.635 31.97 172.955 31.97H223.275C224.595 31.97 225.665 33.0401 225.665 34.3601C225.665 35.6801 224.595 36.75 223.275 36.75Z" fill="#D2DCFF"/>
<path d="M185.525 56.2859H172.272C171.329 56.2859 170.565 55.5221 170.565 54.5791C170.565 53.6361 171.329 52.8721 172.272 52.8721H185.525C186.468 52.8721 187.232 53.6361 187.232 54.5791C187.232 55.5221 186.468 56.2859 185.525 56.2859Z" fill="#6277D7"/>
<path d="M282.765 114.908H241.808C240.865 114.908 240.101 114.144 240.101 113.201V106.304C240.101 105.361 240.865 104.597 241.808 104.597H282.765C283.708 104.597 284.472 105.361 284.472 106.304V113.201C284.472 114.144 283.708 114.908 282.765 114.908Z" fill="#D2DCFF"/>
<path d="M299.269 133.651H241.809C240.866 133.651 240.102 132.887 240.102 131.944V125.047C240.102 124.104 240.866 123.34 241.809 123.34H299.269C300.212 123.34 300.976 124.104 300.976 125.047V131.944C300.976 132.887 300.211 133.651 299.269 133.651Z" fill="#D2DCFF"/>
<path d="M196.072 144.778C196.072 143.02 197.497 141.594 199.256 141.594C186.866 141.594 176.786 131.514 176.786 119.124C176.786 106.734 186.866 96.6541 199.256 96.6541C211.646 96.6541 221.726 106.734 221.726 119.124C221.726 117.366 223.151 115.94 224.91 115.94C226.668 115.94 228.094 117.365 228.094 119.124C228.094 103.223 215.158 90.2871 199.257 90.2871C183.356 90.2871 170.42 103.223 170.42 119.124C170.42 135.025 183.356 147.961 199.257 147.961C197.498 147.962 196.072 146.536 196.072 144.778Z" fill="#D2DCFF"/>
<path d="M224.91 115.941C223.152 115.941 221.726 117.366 221.726 119.125C221.726 131.515 211.646 141.595 199.256 141.595C197.498 141.595 196.072 143.021 196.072 144.779C196.072 146.537 197.497 147.963 199.256 147.963C215.157 147.963 228.093 135.026 228.093 119.126C228.093 117.366 226.668 115.941 224.91 115.941Z" fill="#6277D7"/>
<path d="M423.799 55.103H358.606C357.177 55.103 356.019 56.2609 356.019 57.6899V122.883C356.019 124.312 357.177 125.47 358.606 125.47H423.799C425.228 125.47 426.386 124.312 426.386 122.883V57.6899C426.386 56.2609 425.228 55.103 423.799 55.103Z" fill="#89AEFF"/>
<path d="M401.282 55.103H381.125V90.2871H401.282V55.103Z" fill="#6277D7"/>
<path d="M367.401 271.928V270.546C367.401 270.119 367.055 269.772 366.627 269.772H334.55C332.931 269.772 331.619 271.084 331.619 272.702V275.059C331.619 276.678 332.931 277.99 334.55 277.99H366.627C367.054 277.99 367.401 277.643 367.401 277.216V275.834C367.401 275.407 367.055 275.06 366.627 275.06H335.728C335.077 275.06 334.549 274.532 334.549 273.882C334.549 273.231 335.077 272.703 335.728 272.703H366.627C367.055 272.702 367.401 272.355 367.401 271.928Z" fill="#6277D7"/>
<path d="M366.016 272.702V275.059H335.729C335.078 275.059 334.55 274.531 334.55 273.881C334.55 273.23 335.078 272.702 335.729 272.702H366.016Z" fill="#D2DCFF"/>
<path d="M365.11 263.71V262.327C365.11 261.9 364.763 261.553 364.336 261.553H336.842C335.224 261.553 333.912 262.865 333.912 264.483V266.84C333.912 268.458 335.224 269.77 336.842 269.77H364.336C364.763 269.77 365.11 269.424 365.11 268.996V267.613C365.11 267.186 364.763 266.839 364.336 266.839H338.021C337.37 266.839 336.842 266.311 336.842 265.661C336.842 265.01 337.37 264.482 338.021 264.482H364.336C364.763 264.484 365.11 264.137 365.11 263.71Z" fill="#FE9ECC"/>
<path d="M364.09 264.484V266.841H338.02C337.369 266.841 336.841 266.313 336.841 265.663C336.841 265.012 337.369 264.484 338.02 264.484H364.09Z" fill="#FFD9E8"/>
<path d="M341.806 283.413L324.809 420.835H321.434L338.431 283.413H341.806Z" fill="#D2DCFF"/>
<path d="M386.467 420.835H383.092L368.551 303.269L366.095 283.413H369.47L371.891 302.987L386.467 420.835Z" fill="#D2DCFF"/>
<path d="M172.565 283.413L168.018 320.18L155.568 420.835H152.193L164.607 320.468L169.19 283.413H172.565Z" fill="#D2DCFF"/>
<path d="M217.226 420.835H213.851L201.057 317.394L196.854 283.413H200.229L204.397 317.112L217.226 420.835Z" fill="#D2DCFF"/>
<path d="M169.19 283.413H172.565L168.018 320.18L164.607 320.468L169.19 283.413Z" fill="#AEC3FF"/>
<path d="M200.229 283.413L204.397 317.112L201.057 317.394L196.854 283.413H200.229Z" fill="#AEC3FF"/>
<path d="M371.891 302.987L368.551 303.269L366.095 283.413H369.47L371.891 302.987Z" fill="#AEC3FF"/>
<path d="M378.868 283.413H206.303V277.99H378.868C380.114 277.99 381.124 279 381.124 280.246V281.157C381.125 282.403 380.114 283.413 378.868 283.413Z" fill="#D2DCFF"/>
<path d="M206.303 283.413H160.644C159.398 283.413 158.388 282.403 158.388 281.157V280.246C158.388 279 159.398 277.99 160.644 277.99H206.303V283.413Z" fill="#86A2E2"/>
<path d="M206.265 264.802H221.402C222.149 264.802 222.727 265.454 222.639 266.195L221.359 276.892C221.284 277.518 220.753 277.989 220.122 277.989H207.546C206.915 277.989 206.384 277.518 206.309 276.892L205.029 266.195C204.94 265.455 205.519 264.802 206.265 264.802Z" fill="#D2DCFF"/>
<path d="M219.03 260.437V255.573L216.12 261.103V252.123L213.834 257.777L211.547 252.123V261.103L208.637 255.573V260.437L204.397 253.62L206.265 264.802H213.834H221.402L223.27 253.62L219.03 260.437Z" fill="#6277D7"/>
<path d="M328.19 264.096H233.49L244.048 207.182H338.748L328.19 264.096Z" fill="#D2DCFF"/>
<path d="M280.376 238.958H291.012L305.015 277.99H286.434L280.376 238.958Z" fill="#86A2E2"/>
<path d="M279.992 275.484H248.382C247.806 275.484 247.34 275.951 247.34 276.526V276.947C247.34 277.523 247.807 277.989 248.382 277.989H279.992C280.568 277.989 281.034 277.522 281.034 276.947V276.526C281.035 275.951 280.568 275.484 279.992 275.484Z" fill="#86A2E2"/>
<path d="M280.376 238.958V264.096H284.278L280.376 238.958Z" fill="#AEC3FF"/>
<path d="M132.711 118.091C119.621 120.272 103.311 115.401 101.266 112.298C96.527 119.52 94.119 119.294 94.119 119.294V124.71L93.049 123.64C92.719 122.893 92.195 122.153 91.411 122.153C87.101 122.153 86.8 134.141 94.054 134.834C94.197 135.304 94.345 135.743 94.496 136.14V155.328H110.858V147.781C111.958 148.083 113.012 148.256 113.98 148.256C120.431 148.256 131.424 138.77 132.67 123.639C132.745 120.785 132.711 118.091 132.711 118.091Z" fill="#FCBEB7"/>
<path d="M112.851 97.553C101.567 97.553 99.31 103.571 99.31 103.571C94.495 103.571 87.123 112.373 91.562 122.152L91.585 122.175L94.12 124.71V119.294C94.12 119.294 96.527 119.52 101.267 112.298C103.312 115.401 119.623 120.272 132.712 118.091C132.712 118.091 132.746 120.785 132.671 123.64C132.671 123.643 132.671 123.646 132.671 123.649C137.559 109.506 127.746 97.553 112.851 97.553Z" fill="#311643"/>
<path d="M107.999 127.771C107.5 127.771 107.096 127.367 107.096 126.868V125.181C107.096 124.682 107.5 124.278 107.999 124.278C108.498 124.278 108.902 124.682 108.902 125.181V126.868C108.902 127.367 108.497 127.771 107.999 127.771Z" fill="#311643"/>
<path d="M124.737 127.771C124.238 127.771 123.834 127.367 123.834 126.868V125.181C123.834 124.682 124.238 124.278 124.737 124.278C125.236 124.278 125.64 124.682 125.64 125.181V126.868C125.64 127.367 125.236 127.771 124.737 127.771Z" fill="#311643"/>
<path d="M114.636 138.308C113.025 138.308 111.928 137.702 111.263 137.15C110.425 136.454 110.077 135.695 110.062 135.663C109.968 135.455 110.061 135.21 110.269 135.116C110.477 135.022 110.721 135.115 110.815 135.322C110.862 135.424 112.006 137.824 115.331 137.439C115.558 137.413 115.763 137.575 115.789 137.803C115.815 138.03 115.653 138.235 115.426 138.261C115.151 138.293 114.887 138.308 114.636 138.308Z" fill="#311643"/>
<path d="M102.006 135.256C104.471 135.256 106.47 133.257 106.47 130.792C106.47 128.327 104.471 126.328 102.006 126.328C99.5406 126.328 97.542 128.327 97.542 130.792C97.542 133.257 99.5406 135.256 102.006 135.256Z" fill="#F49795"/>
<path d="M132.206 127.086C131.64 130.084 130.692 132.817 129.493 135.25C127.132 135.133 125.255 133.182 125.255 130.792C125.255 128.327 127.253 126.329 129.718 126.329C130.639 126.328 131.495 126.607 132.206 127.086Z" fill="#F49795"/>
<path d="M124.737 117.216C121.478 117.216 118.787 119.694 118.448 122.864C116.676 122.03 115.112 122.482 114.287 122.861C113.947 119.692 111.257 117.216 107.999 117.216C104.511 117.216 101.674 120.053 101.674 123.541C101.674 127.029 104.512 129.866 107.999 129.866C111.408 129.866 114.195 127.154 114.318 123.774C114.842 123.477 116.525 122.708 118.417 123.779C118.543 127.156 121.329 129.865 124.736 129.865C128.224 129.865 131.061 127.028 131.061 123.54C131.062 120.054 128.225 117.216 124.737 117.216ZM107.999 129.04C104.967 129.04 102.501 126.574 102.501 123.542C102.501 120.511 104.967 118.044 107.999 118.044C111.03 118.044 113.497 120.51 113.497 123.542C113.497 126.573 111.03 129.04 107.999 129.04ZM124.737 129.04C121.705 129.04 119.239 126.574 119.239 123.542C119.239 120.511 121.705 118.044 124.737 118.044C127.769 118.044 130.235 120.51 130.235 123.542C130.235 126.573 127.769 129.04 124.737 129.04Z" fill="white"/>
<path d="M110.857 155.328V147.781C107.157 146.764 102.945 144.273 99.779 141.898L110.857 155.328Z" fill="#F9AFAB"/>
<path d="M149.968 399.036H132.64L103.502 270.904L73.652 399.036H56.323L72.47 255.286L136.49 255.285L149.968 399.036Z" fill="#6277D7"/>
<path d="M134.015 406.003V418.249C134.015 419.677 135.173 420.835 136.601 420.835H171.335C171.665 420.835 171.933 420.567 171.933 420.237V417.879C171.933 416.848 171.343 415.908 170.415 415.46L150.83 406.004H134.015V406.003Z" fill="#2F3D6C"/>
<path d="M71.767 406.003V418.249C71.767 419.677 70.609 420.835 69.181 420.835H34.447C34.116 420.835 33.849 420.567 33.849 420.237V417.879C33.849 416.848 34.439 415.908 35.367 415.46L54.952 406.004H71.767V406.003Z" fill="#2F3D6C"/>
<path d="M132.64 399.036L133.944 406.003H150.83L149.968 399.036H132.64Z" fill="#FCBEB7"/>
<path d="M56.323 399.036L54.953 406.003H71.767L73.652 399.036H56.323Z" fill="#FCBEB7"/>
<path d="M72.123 258.369L137.123 262.041L136.49 255.285L72.47 255.286" fill="#4A5EA3"/>
<path d="M132.249 193.332L136.49 255.285H72.47L76.393 211.138L75.523 187.579L72.2 190.891L57.427 179.534L65.365 166.598C67.329 163.399 70.166 160.827 73.543 159.188L91.752 150.35L92.418 150.027L94.497 149.018C94.497 149.018 103.999 155.254 110.83 149.018L114.479 150.394L115.221 150.673L134.52 157.948C137.542 159.087 140.002 161.359 141.377 164.283L149.562 181.694L132.249 193.332Z" fill="#89AEFF"/>
<path d="M114.478 150.395C111.347 152.618 107.615 153.816 103.697 153.816C99.57 153.816 95.647 152.486 92.418 150.028L91.752 150.351C95.145 153.026 99.31 154.478 103.698 154.478C107.905 154.478 111.907 153.144 115.221 150.673L114.478 150.395Z" fill="white"/>
<path d="M72.748 161.3C72.748 164.339 70.284 166.802 67.245 166.802C66.608 166.802 65.998 166.694 65.429 166.495C67.186 163.672 69.627 161.344 72.519 159.724C72.668 160.224 72.748 160.753 72.748 161.3Z" fill="#4A62D3"/>
<path d="M76.074 320.756C80.6552 320.756 84.369 317.042 84.369 312.461C84.369 307.88 80.6552 304.166 76.074 304.166C71.4928 304.166 67.779 307.88 67.779 312.461C67.779 317.042 71.4928 320.756 76.074 320.756Z" fill="#4A5EA3"/>
<path d="M131.411 320.756C135.992 320.756 139.706 317.042 139.706 312.461C139.706 307.88 135.992 304.166 131.411 304.166C126.83 304.166 123.116 307.88 123.116 312.461C123.116 317.042 126.83 320.756 131.411 320.756Z" fill="#4A5EA3"/>
<path d="M104.215 247.083L52.077 261.961C51.219 262.206 50.325 261.709 50.081 260.851L40.735 228.1C40.49 227.242 40.987 226.348 41.845 226.104L93.983 211.226C94.841 210.981 95.735 211.478 95.979 212.336L105.325 245.088C105.57 245.944 105.073 246.838 104.215 247.083Z" fill="#4A5EA3"/>
<path d="M123.018 191.843H109.022C108.557 191.843 108.179 191.466 108.179 191V164.831C108.179 164.366 108.556 163.988 109.022 163.988H123.018C123.483 163.988 123.861 164.365 123.861 164.831V191C123.861 191.466 123.484 191.843 123.018 191.843Z" fill="#4A5EA3"/>
<path d="M161.23 209.277L149.561 181.694L140.657 187.647L128.148 176.685L125.591 167.919C125.555 167.639 125.335 167.419 125.056 167.382C123.83 167.22 122.779 168.253 122.919 169.481L123.358 173.321L118.716 173.936C117.464 174.102 116.191 173.992 114.986 173.613L110.667 172.255C109.37 171.847 107.991 172.582 107.607 173.886L105.94 173.5C105.126 173.312 104.311 173.806 104.101 174.614L104.089 174.658C103.909 175.353 104.231 176.08 104.868 176.412C104.528 177.741 105.317 179.098 106.641 179.459L106.679 179.469C106.322 180.808 106.983 182.209 108.244 182.785L111.512 184.278C112.741 184.84 114.088 185.095 115.437 185.021L122.861 184.417L148.07 217.366L148.075 217.372C150.305 220.033 154.106 220.948 157.364 219.424C161.178 217.642 162.89 213.15 161.23 209.277Z" fill="#FCBEB7"/>
<path d="M141.567 164.69C140.971 164.921 140.324 165.048 139.647 165.048C136.708 165.048 134.325 162.665 134.325 159.725C134.325 159.116 134.428 158.531 134.616 157.985C137.594 159.137 140.016 161.391 141.376 164.284L141.567 164.69Z" fill="#4A62D3"/>
<path d="M142.248 189.043L155.756 196.338L158.81 203.556L142.248 189.043Z" fill="#F9AFAB"/>
<path d="M72.436 256.153L53.314 222.83L57.36 221.676L72.436 256.153Z" fill="#2F3D6C"/>
<path d="M153.562 218.232C156.46 218.232 158.81 215.882 158.81 212.984C158.81 210.085 156.46 207.736 153.562 207.736C150.664 207.736 148.314 210.085 148.314 212.984C148.314 215.882 150.664 218.232 153.562 218.232Z" fill="#F9AFAB"/>
<path d="M53.835 198.044C53.835 200.753 51.9 203.011 49.335 203.508L48.398 201.328C47.456 199.139 47.601 196.633 48.789 194.567L49.858 192.707C52.158 193.391 53.835 195.522 53.835 198.044Z" fill="#F9AFAB"/>
<path d="M86.7 250.119L80.189 247.213C79.738 247.012 79.389 246.636 79.22 246.172L78.276 243.573L81.566 244.38L82.615 246.633C82.968 247.391 83.86 247.732 84.629 247.401L83.259 243.265C83.003 242.607 82.509 242.069 81.875 241.757L75 238.375L63.14 199.906L72.201 190.892L57.428 179.535L48.79 194.568C47.602 196.635 47.458 199.14 48.399 201.329L72.373 256.153L77.131 256.372C77.703 256.399 78.243 256.109 78.537 255.618L79.055 254.753L81.559 254.958C82.095 255.002 82.616 254.766 82.937 254.333L83.526 253.538L83.877 253.631C84.836 253.884 85.843 253.446 86.312 252.572L88.05 253.152C88.442 251.946 87.86 250.636 86.7 250.119Z" fill="#FCBEB7"/>
<path d="M433.839 373.576H386.58V420.835H433.839V373.576Z" fill="#D2DCFF"/>
<path d="M386.58 373.576H360.547V420.835H386.58V373.576Z" fill="#AEC3FF"/>
<path d="M386.58 381.656H360.547V383.04H386.58V381.656Z" fill="#86A2E2"/>
<path d="M433.839 381.656H386.58V383.04H433.839V381.656Z" fill="#AEC3FF"/>
<path d="M418.904 389.806H401.514C401.184 389.806 400.916 389.538 400.916 389.208V389.173C400.916 388.843 401.184 388.575 401.514 388.575H418.904C419.234 388.575 419.502 388.843 419.502 389.173V389.208C419.502 389.539 419.234 389.806 418.904 389.806Z" fill="#86A2E2"/>
</svg>
