<svg width="112" height="141" viewBox="0 0 112 141" fill="none" xmlns="http://www.w3.org/2000/svg">
<path d="M104.996 4.43513C102.754 2.59687 100.131 1.27996 97.3169 0.579536C94.5031 -0.120888 91.5687 -0.187311 88.7261 0.385139L22.1662 12.1151C9.94623 14.2751 0.00607893 26.2552 0.00607893 38.8352V119.905C-0.067204 122.882 0.522883 125.838 1.73362 128.559C2.94435 131.28 4.74539 133.697 7.00608 135.635C10.4756 138.525 14.861 140.085 19.3762 140.035C20.6836 140.034 21.9883 139.921 23.2761 139.695C35.4961 137.535 45.436 125.545 45.436 112.975V95.2451L56.5561 93.2451C68.7761 91.0951 78.716 79.1052 78.716 66.5352C78.79 63.558 78.2003 60.6018 76.9895 57.881C75.7787 55.1602 73.9773 52.7431 71.716 50.8051C71.456 50.5851 71.1762 50.3751 70.9062 50.1751L89.7861 46.8452C102.006 44.6952 111.946 32.7051 111.946 20.1251C112.019 17.1587 111.434 14.2129 110.233 11.4999C109.031 8.78682 107.242 6.37399 104.996 4.43513V4.43513ZM39.3161 112.975C39.3161 122.745 31.6262 132.055 22.1662 133.715C20.1966 134.127 18.1597 134.096 16.2036 133.624C14.2475 133.152 12.421 132.25 10.8562 130.985C9.28554 129.609 8.04004 127.901 7.20994 125.985C6.37983 124.069 5.9858 121.992 6.05613 119.905C6.05613 110.135 13.746 100.825 23.206 99.1552L39.2961 96.3151L39.3161 112.975ZM72.5962 66.5751C72.5962 76.3451 64.906 85.6551 55.446 87.3151L22.1662 93.1851C15.7667 94.4545 10.0476 98.009 6.07615 103.185V79.3851C6.07615 69.6051 13.766 60.3051 23.216 58.6351L56.5061 52.7651C58.4757 52.3531 60.5124 52.3843 62.4685 52.8565C64.4246 53.3287 66.2513 54.23 67.8161 55.4951C69.3831 56.8732 70.6248 58.5819 71.4514 60.4979C72.278 62.414 72.669 64.4897 72.5962 66.5751V66.5751ZM88.7261 40.9152L22.1662 52.7051C15.7643 53.9685 10.0432 57.5241 6.07615 62.7051V38.9052C6.07615 29.1352 13.766 19.8252 23.226 18.1552L89.7861 6.42512C90.7136 6.25921 91.654 6.17555 92.5962 6.17512C95.6966 6.1294 98.7113 7.1934 101.096 9.17512C102.664 10.5523 103.907 12.2609 104.733 14.1771C105.56 16.0934 105.95 18.1695 105.876 20.2551C105.876 29.9451 98.1861 39.2452 88.7261 40.9152V40.9152Z" fill="url(#paint0_linear_8_725)"/>
<defs>
<linearGradient id="paint0_linear_8_725" x1="83.116" y1="-12.2748" x2="-5.59398" y2="124.255" gradientUnits="userSpaceOnUse">
<stop stop-color="#85CAFF"/>
<stop offset="1" stop-color="#595CFF"/>
</linearGradient>
</defs>
</svg>
